# xmcd
#
# Track frame offsets: 
#        150
#        15222
#        30847
#        45652
#        61787
#        83462
#        105540
#        122687
#        128287
#        147205
#
# Disc length: 2220 seconds
#
# Revision: 2
# Processed by: cddbd v1.5.2PL0 Copyright (c) Steve Scherf et al.
# Submitted via: ExactAudioCopyFreeDBPlugin 1.0
#
DISCID=6208aa0a
DTITLE=Wet Willie - Manorisms
DYEAR=1977
DGENRE=blues
TTITLE0=Rainman
TTITLE1=Make You Feel Love Again
TTITLE2=So Blue
TTITLE3=We Got Lovin'
TTITLE4=Don't Turn Me Away
TTITLE5=Street Corner Serenade
TTITLE6=One Track Mind
TTITLE7=How 'Bout You
TTITLE8=Doin' All The Right Things (The Wrong Way)
TTITLE9=Let It Shine
EXTD=
EXTT0=
EXTT1=
EXTT2=
EXTT3=
EXTT4=
EXTT5=
EXTT6=
EXTT7=
EXTT8=
EXTT9=
PLAYORDER=
